<svg width="14" height="8" viewBox="0 0 14 8" fill="none" xmlns="http://www.w3.org/2000/svg">
<path fill-rule="evenodd" clip-rule="evenodd" d="M9.78941 0.995176C9.58969 0.804482 9.27319 0.811805 9.0825 1.01153C8.8918 1.21126 8.89913 1.52776 9.09885 1.71845L11.3385 3.85681L1.06519 3.85681C0.789043 3.85681 0.565186 4.08067 0.565186 4.35681C0.565186 4.63295 0.789043 4.85681 1.06519 4.85681L11.3385 4.85681L9.09885 6.99518C8.89913 7.18587 8.8918 7.50237 9.0825 7.70209C9.27319 7.90182 9.58969 7.90914 9.78941 7.71845L12.9315 4.71845C12.9382 4.71209 12.9446 4.70556 12.9509 4.69888C13.0348 4.60945 13.0862 4.48913 13.0862 4.35681C13.0862 4.21419 13.0265 4.08552 12.9307 3.99443M9.78941 0.995176L12.9307 3.99443L9.78941 0.995176Z" fill="#FF1C29"/>
</svg>
